<svg width="18" height="18" viewBox="0 0 18 18" fill="none" xmlns="http://www.w3.org/2000/svg">
<path d="M17.3406 16.5058L12.0445 11.1773C13.0316 9.99505 13.6265 8.47406 13.6265 6.81326C13.6265 3.05043 10.5761 0 6.81326 0C3.05043 0 0 3.05043 0 6.81326C0 10.5761 3.05043 13.6265 6.81326 13.6265C8.52284 13.6265 10.0844 12.9953 11.2808 11.9548L16.5696 17.2768C16.7824 17.4896 17.1277 17.4896 17.3406 17.2768C17.5531 17.0639 17.5531 16.7189 17.3406 16.5058H17.3406ZM6.81326 12.5454C3.64754 12.5454 1.08113 9.97897 1.08113 6.81326C1.08113 3.64754 3.64754 1.08113 6.81326 1.08113C9.97897 1.08113 12.5454 3.64754 12.5454 6.81326C12.5454 9.97897 9.97897 12.5454 6.81326 12.5454Z" fill="#174579"/>
</svg>
